<svg xmlns="http://www.w3.org/2000/svg" xmlns:xlink="http://www.w3.org/1999/xlink" width="464" height="396" viewBox="0 0 464 396">
  <defs>
    <style>
      .cls-1 {
        fill: url(#linear-gradient);
      }

      .cls-2 {
        fill: #e6e6e6;
      }

      .cls-3 {
        fill: #9ae0ff;
      }

      .cls-4 {
        fill: #3f3d56;
      }

      .cls-5 {
        opacity: 0.2;
      }

      .cls-6 {
        fill: #0279ae;
      }

      .cls-7 {
        fill: #ffb8b8;
      }

      .cls-8 {
        fill: #2f2e41;
      }

      .cls-9 {
        fill: #ff6584;
      }

      .cls-10 {
        fill: #6c63ff;
      }

      .cls-11 {
        fill: #f9a825;
      }
    </style>
    <linearGradient id="linear-gradient" y1="0.031" x2="1" y2="1" gradientUnits="objectBoundingBox">
      <stop offset="0" stop-color="#9ae0ff"/>
      <stop offset="1" stop-color="#717171"/>
    </linearGradient>
  </defs>
  <g id="Group_360" data-name="Group 360" transform="translate(-379 -3589)">
    <rect id="Rectangle_51" data-name="Rectangle 51" class="cls-1" width="464" height="396" rx="20" transform="translate(379 3589)"/>
    <g id="Group_357" data-name="Group 357" transform="translate(425.103 3617)">
      <path id="Path_385" data-name="Path 385" class="cls-2" d="M903.464,269.947V250.375h-3.043v19.572a4.058,4.058,0,1,0,3.043,0Z" transform="translate(-564.256 -177.337)"/>
      <path id="Path_386" data-name="Path 386" class="cls-2" d="M856.359,432.966h-20.8V180.375h-8.115V432.966h-20.8a18.767,18.767,0,0,0-18.767,18.767h87.24a18.767,18.767,0,0,0-18.767-18.767Z" transform="translate(-510.05 -142.841)"/>
      <path id="Path_387" data-name="Path 387" class="cls-3" d="M787.968,181.442h87.156l-5.33-66.617a9.23,9.23,0,0,0-9.153-8.45H802.45a9.23,9.23,0,0,0-9.153,8.45Z" transform="translate(-510.091 -106.375)"/>
      <path id="Path_388" data-name="Path 388" class="cls-4" d="M301.213,408.3H567.235v-27.16c0-73.342-59.669-133.011-133.011-133.011S301.213,307.794,301.213,381.136Z" transform="translate(-270.224 -176.228)"/>
      <path id="Path_389" data-name="Path 389" class="cls-5" d="M301.213,408.3H567.235v-27.16c0-73.342-59.669-133.011-133.011-133.011S301.213,307.794,301.213,381.136Z" transform="translate(-270.224 -176.228)"/>
      <path id="Path_390" data-name="Path 390" class="cls-6" d="M369.188,543.2H573.915a41.134,41.134,0,0,0-41.081-40.391H410.269A41.134,41.134,0,0,0,369.188,543.2Z" transform="translate(-303.721 -301.735)"/>
      <circle id="Ellipse_41" data-name="Ellipse 41" class="cls-4" cx="41.087" cy="41.087" r="41.087" transform="translate(0 155.116)"/>
      <circle id="Ellipse_42" data-name="Ellipse 42" class="cls-4" cx="41.087" cy="41.087" r="41.087" transform="translate(249.308 155.116)"/>
      <path id="Path_391" data-name="Path 391" class="cls-4" d="M525.909,534.392v15.32H336.141v-15.32H293.662v74.673a17.251,17.251,0,0,0,17.251,17.251H551.137a17.251,17.251,0,0,0,17.251-17.251V534.392Z" transform="translate(-266.502 -317.297)"/>
      <circle id="Ellipse_43" data-name="Ellipse 43" class="cls-5" cx="8.357" cy="8.357" r="8.357" transform="translate(32.73 187.846)"/>
      <circle id="Ellipse_44" data-name="Ellipse 44" class="cls-5" cx="8.357" cy="8.357" r="8.357" transform="translate(282.039 187.846)"/>
      <path id="Path_392" data-name="Path 392" class="cls-7" d="M571.742,238.616s.821,15.609,6.572,18.9,0,25.468,0,25.468L551.2,283.8l-1.643-26.289s3.286-10.68,1.643-15.609S571.742,238.616,571.742,238.616Z" transform="translate(-392.606 -171.412)"/>
      <path id="Path_393" data-name="Path 393" class="cls-7" d="M403.529,560.1l-9.858,11.5,15.609,14.788,8.215-16.431Z" transform="translate(-193.997 -276.012)"/>
      <path id="Path_394" data-name="Path 394" class="cls-7" d="M261.862,560.1l9.859,11.5-15.609,14.788L247.9,569.961Z" transform="translate(-122.16 -276.012)"/>
      <path id="Path_395" data-name="Path 395" class="cls-8" d="M598,445.479s59.151,19.717,55.865,38.612-28.754,85.44-28.754,85.44-13.966,0-24.646-14.788l7.394-16.431s-3.286-9.037,2.465-10.68,9.037-30.4,9.037-30.4-41.9-3.286-50.936-18.9l-16.431-39.434Z" transform="translate(-393.804 -270.243)"/>
      <path id="Path_396" data-name="Path 396" class="cls-8" d="M471.671,445.479S412.52,465.2,415.806,484.091s28.754,85.44,28.754,85.44,13.966,0,24.646-14.788l-7.394-16.431s3.286-9.037-2.465-10.68-9.037-30.4-9.037-30.4,41.9-3.286,50.936-18.9l16.431-39.434Z" transform="translate(-326.628 -270.243)"/>
      <path id="Path_397" data-name="Path 397" class="cls-8" d="M637.43,686.627s8.215-7.394,9.037-1.643-.822,28.754-.822,28.754,8.215,17.252-4.108,17.252-18.074-13.145-16.431-26.289-5.751-18.074-5.751-18.074-9.037-18.074,0-19.717,12.323,2.465,12.323,2.465S628.393,684.162,637.43,686.627Z" transform="translate(-425.022 -382.409)"/>
      <path id="Path_398" data-name="Path 398" class="cls-8" d="M499.29,686.627s-8.215-7.394-9.037-1.643.822,28.754.822,28.754-8.216,17.253,4.108,17.253,18.074-13.145,16.431-26.289,5.751-18.074,5.751-18.074,9.037-18.074,0-19.717-12.323,2.465-12.323,2.465S508.327,684.162,499.29,686.627Z" transform="translate(-362.463 -382.409)"/>
      <circle id="Ellipse_45" data-name="Ellipse 45" class="cls-7" cx="18.895" cy="18.895" r="18.895" transform="translate(147.506 38.861)"/>
      <path id="Path_399" data-name="Path 399" class="cls-2" d="M521.913,275.444l-11.5-9.037-27.932,13.145-.822,74.76s-17.252,8.215-12.323,18.9c0,0,14.788,3.286,21.36,9.858s43.542-2.465,59.151-7.394,19.717-10.68,19.717-10.68L553.953,342.81l9.037-56.686-27.93-18.777Z" transform="translate(-352.635 -185.237)"/>
      <path id="Path_400" data-name="Path 400" class="cls-8" d="M565.219,178.25a16.594,16.594,0,0,1-1.127-1.748c-.586-1.427.34-3.109-.525-4.441-.883-1.36-3.124-1.647-4.648-2.571-2.349-1.424-2.776-4.217-4.976-5.786a9.96,9.96,0,0,0-5.966-1.37c-2.119.064-4.209.448-6.329.49a19.082,19.082,0,0,1-8.307-1.7l1.564,3.059a15.61,15.61,0,0,1-4.909-1.99c-.692.858.574,2.16-.211,2.965a2.518,2.518,0,0,1-1.108.514,26.5,26.5,0,0,0-8.388,4.092,4.214,4.214,0,0,0-1.411,1.49c-.408.9-.046,1.9-.077,2.861-.056,1.745-1.388,3.267-2.334,4.839s-1.456,3.61-.054,4.945a12.733,12.733,0,0,1,.98.864c1.4,1.657-1.082,4.084.117,5.843a6.223,6.223,0,0,0,2.514,1.6,10.047,10.047,0,0,1,4.3,3.831l-.721-5.289a.872.872,0,0,1,.143-.77c.349-.356,1.08-.214,1.562-.449a1.294,1.294,0,0,0,.549-1.352l-.162-3.84c-.073-1.727-.093-1.956,1.179-3.35a8.252,8.252,0,0,1,3.69-1.993,51.343,51.343,0,0,1,10.07-1.663c3.961-.388,8.421-2.309,11.5-.269,2.518,1.67,3.355,4.416,4.568,6.851,1.091,2.189,3.889,8.633,6.219,5.145C564.379,186.866,566.617,180.69,565.219,178.25Z" transform="translate(-375.845 -133.355)"/>
      <path id="Path_401" data-name="Path 401" class="cls-4" d="M574.3,209.438a.294.294,0,0,0-.294.293v7.911a.294.294,0,0,0,.294.293h13.618a.294.294,0,0,0,.294-.293v-7.911a.294.294,0,0,0-.294-.293Z" transform="translate(-404.652 -157.163)"/>
      <path id="Path_402" data-name="Path 402" class="cls-9" d="M577.052,210.813a.548.548,0,0,0-.547.547v6.009a.548.548,0,0,0,.547.547h10.575a.548.548,0,0,0,.547-.547V211.36a.548.548,0,0,0-.547-.547Z" transform="translate(-405.884 -157.841)"/>
      <rect id="Rectangle_44" data-name="Rectangle 44" class="cls-4" width="7.094" height="1.643" transform="translate(162.705 54.881)"/>
      <path id="Path_403" data-name="Path 403" class="cls-4" d="M536.277,209.438a.294.294,0,0,0-.294.293v7.911a.294.294,0,0,0,.294.293H549.9a.294.294,0,0,0,.293-.293v-7.911a.294.294,0,0,0-.293-.293Z" transform="translate(-385.916 -157.163)"/>
      <path id="Path_404" data-name="Path 404" class="cls-10" d="M539.031,210.813a.548.548,0,0,0-.547.547v6.009a.548.548,0,0,0,.547.547h10.574a.548.548,0,0,0,.547-.547V211.36a.548.548,0,0,0-.547-.547Z" transform="translate(-387.148 -157.841)"/>
      <path id="Path_405" data-name="Path 405" class="cls-4" d="M274.87,297.75h47.171a7.1,7.1,0,0,1,7.1,7.1H267.769a7.1,7.1,0,0,1,7.1-7.1Z" transform="translate(-131.954 -146.728)"/>
      <path id="Path_406" data-name="Path 406" class="cls-11" d="M567.406,394.731a2.518,2.518,0,0,0-.811.138,1.519,1.519,0,0,0-2.993.369c0,.008,0,.015,0,.022a2.6,2.6,0,0,0-.56.116,1.527,1.527,0,0,0-.752-.969,2.545,2.545,0,0,0,1.1-1.2,2.039,2.039,0,1,0-.042-4.054,2.52,2.52,0,0,0-.811.138,1.517,1.517,0,1,0-2.916.824c-.061.042-.117.09-.174.137a1.44,1.44,0,0,0-1.037-.345,2.526,2.526,0,0,0-4.911.786,2.6,2.6,0,0,0-.6.119,1.519,1.519,0,0,0-.087-.25,1.906,1.906,0,0,0,.645-1.409,2.167,2.167,0,0,0-2.282-2.029,2.517,2.517,0,0,0-.811.138,1.517,1.517,0,1,0-2.916.824,2.529,2.529,0,0,0-1.084,1.962c-.021.019-.046.035-.066.055a1.8,1.8,0,0,0,.059-.443,2.167,2.167,0,0,0-2.283-2.029,2.517,2.517,0,0,0-.811.138,1.517,1.517,0,1,0-2.916.824,2.529,2.529,0,0,0,0,4.162,1.384,1.384,0,0,0,0,.91,2.562,2.562,0,0,0-.649.655,1.512,1.512,0,0,0-2.963.256,2.416,2.416,0,0,0-.652-.263,2.55,2.55,0,0,0,.932-1.107,2.039,2.039,0,1,0-.042-4.054,2.519,2.519,0,0,0-.811.138,1.517,1.517,0,1,0-2.916.824c-.032.023-.062.049-.093.073-.079-.007-.156-.021-.237-.021a2.516,2.516,0,0,0-.811.138c-.01-.038-.025-.074-.038-.111a1.495,1.495,0,0,0-1.553-1.809,2.534,2.534,0,1,0-3.982,2.823,2.624,2.624,0,0,0-.514.112,1.508,1.508,0,0,0-2.415-.816,2.372,2.372,0,0,0-1.846-.844,2.515,2.515,0,0,0-.811.138,1.517,1.517,0,1,0-2.916.824,2.53,2.53,0,0,0-1.091,2.081c0,.008,0,.015,0,.023a2.1,2.1,0,0,0-1.067.115,1.517,1.517,0,1,0-2.916.824,4.276,4.276,0,0,0,6.771,5.2,15.81,15.81,0,0,0,5.479-.247,2.527,2.527,0,0,0,4.706.169,2.481,2.481,0,0,0,1.064-.263,2.524,2.524,0,0,0,4.515-.244,2.457,2.457,0,0,1,2.748,1.525,3.956,3.956,0,0,1,2.913-1.612,2.473,2.473,0,0,0,2.746-1.049,2.535,2.535,0,0,0,4.78,1.643,2.481,2.481,0,0,0,1.064-.263,2.524,2.524,0,0,0,4.516-.244,2.482,2.482,0,0,0,1.064-.263A5.436,5.436,0,0,1,561,400.752a4.571,4.571,0,0,1,4.772-.524,2.519,2.519,0,0,0,1.677-1.443,2.039,2.039,0,1,0-.042-4.054Zm-45.334-1.047c0,.012,0,.025-.007.037-.018,0-.036,0-.055,0a1.508,1.508,0,0,0-.226.023c0-.009.01-.017.014-.027a2.528,2.528,0,0,0,.274-.029Zm21.191-.844c-.007-.03-.02-.057-.029-.086a2.548,2.548,0,0,0,.882-1.071,2.374,2.374,0,0,0,1.763-.8,1.525,1.525,0,0,0-.03.3,1.507,1.507,0,0,0,.077.455,2.545,2.545,0,0,0-.943,1.236,2.489,2.489,0,0,0-1.721-.031Zm15.191.189c0-.031,0-.063,0-.094a1.517,1.517,0,0,0,.193-.013,2.514,2.514,0,0,0,.483.9c-.048.013-.1.022-.145.037a1.529,1.529,0,0,0-.532-.825Z" transform="translate(-374.022 -244.216)"/>
      <path id="Path_407" data-name="Path 407" class="cls-4" d="M512.812,409.125a5.3,5.3,0,0,0-5.289,5.58l3.435,47.229a5.3,5.3,0,0,0,5.289,5.013h44.285a5.3,5.3,0,0,0,5.289-5.013l3.435-47.229a5.3,5.3,0,0,0-5.289-5.58Z" transform="translate(-371.887 -255.567)"/>
      <rect id="Rectangle_45" data-name="Rectangle 45" class="cls-10" width="3.043" height="57.822" transform="translate(143.424 153.558)"/>
      <rect id="Rectangle_46" data-name="Rectangle 46" class="cls-10" width="3.043" height="57.822" transform="translate(152.046 153.558)"/>
      <rect id="Rectangle_47" data-name="Rectangle 47" class="cls-10" width="3.043" height="57.822" transform="translate(160.669 153.558)"/>
      <rect id="Rectangle_48" data-name="Rectangle 48" class="cls-10" width="3.043" height="57.822" transform="translate(169.291 153.558)"/>
      <rect id="Rectangle_49" data-name="Rectangle 49" class="cls-10" width="3.043" height="57.822" transform="translate(177.914 153.558)"/>
      <rect id="Rectangle_50" data-name="Rectangle 50" class="cls-10" width="3.043" height="57.822" transform="translate(186.537 153.558)"/>
      <path id="Path_408" data-name="Path 408" class="cls-7" d="M585.494,465.632l-9.858,5.751s-23.825,19.717-7.394,23S588.78,480.42,588.78,480.42l5.751-6.572Z" transform="translate(-398.964 -283.413)"/>
      <path id="Path_409" data-name="Path 409" class="cls-7" d="M506.767,457.533l9.858,5.751s23.825,19.717,7.394,23-20.538-13.966-20.538-13.966l-5.751-6.572Z" transform="translate(-367.065 -279.422)"/>
      <path id="Path_410" data-name="Path 410" class="cls-2" d="M616.2,303.66l10.68.822s8.215,7.394,7.394,17.252c0,0,7.394,21.36,5.751,30.4,0,0,1.643,14.788-.822,20.539s-23,27.932-23,27.932-18.9-14.788-18.074-15.609l24.646-24.646L610.45,343.916Z" transform="translate(-416.527 -203.595)"/>
      <path id="Path_411" data-name="Path 411" class="cls-2" d="M472.442,292.322l-.411.411s-18.485,7.8-17.663,17.663c0,0-7.394,21.36-5.751,30.4,0,0-1.643,14.788.822,20.539s23,27.932,23,27.932,18.9-14.788,18.074-15.609l-24.646-24.646,12.323-16.431Z" transform="translate(-342.598 -198.008)"/>
    </g>
  </g>
</svg>
