<svg xmlns="http://www.w3.org/2000/svg" xmlns:xlink="http://www.w3.org/1999/xlink" width="464" height="396" viewBox="0 0 464 396">
  <defs>
    <style>
      .cls-1 {
        fill: url(#linear-gradient);
      }

      .cls-2 {
        fill: #ff6584;
      }

      .cls-3 {
        fill: #f2f2f2;
      }

      .cls-4 {
        opacity: 0.1;
      }

      .cls-5 {
        fill: #0279ae;
      }

      .cls-6 {
        fill: #3f3d56;
      }

      .cls-7 {
        fill: #6c63ff;
      }

      .cls-8 {
        fill: #a8a8a8;
      }

      .cls-9 {
        opacity: 0.2;
      }

      .cls-10 {
        fill: #ffb9b9;
      }

      .cls-11 {
        fill: #575a89;
      }

      .cls-12 {
        fill: #2f2e41;
      }
    </style>
    <linearGradient id="linear-gradient" y1="0.031" x2="1" y2="1" gradientUnits="objectBoundingBox">
      <stop offset="0" stop-color="#9ae0ff"/>
      <stop offset="1" stop-color="#717171"/>
    </linearGradient>
  </defs>
  <g id="Group_363" data-name="Group 363" transform="translate(-960 -4165)">
    <rect id="Rectangle_54" data-name="Rectangle 54" class="cls-1" width="464" height="396" rx="20" transform="translate(960 4165)"/>
    <g id="Group_361" data-name="Group 361" transform="translate(991 4248)">
      <circle id="Ellipse_53" data-name="Ellipse 53" class="cls-2" cx="30.433" cy="30.433" r="30.433" transform="translate(57.327 45.481)"/>
      <path id="Path_441" data-name="Path 441" class="cls-3" d="M426.309,384.247a59.931,59.931,0,0,1-5.48,4.379,69.421,69.421,0,0,1-14.6,7.847c-21.45-.516-52.983-3.148-92.787-4.551q-4.453-1.522-9.11-3.3-6.161-2.348-12.677-5.16a234.3,234.3,0,0,0-54.91-15.891q-5.914-.975-11.8-1.672C142.1,356,65.7,385.107,56.853,388.627H56l5.442-10.541,92.6-179.361,21.656,55.6,6.911,17.748,19.049-26.139,9.836-13.5,44.792,51.353,12.66-27.959,87.651,71.53,4.889,3.987,4.947,4.039,1.576,1.287,46.86,38.242Z" transform="translate(-47.507 -173.061)"/>
      <path id="Path_442" data-name="Path 442" class="cls-4" d="M285,140.694l9.2-20.171,12.739,29.371-10.97-21.232Z" transform="translate(-184.146 -77.873)"/>
      <path id="Path_443" data-name="Path 443" class="cls-4" d="M479.722,510.17q-6.083-1-12.134-1.72L424.04,411.935Z" transform="translate(-285.308 -310.822)"/>
      <path id="Path_444" data-name="Path 444" class="cls-4" d="M447.411,195.389l10.117-7.866,46,53.081-46.711-45.3Z" transform="translate(-289.084 -121.164)"/>
      <path id="Path_445" data-name="Path 445" class="cls-4" d="M606.2,319.789l91.937,88.02-12.575,2.966Z" transform="translate(-391.68 -206.624)"/>
      <path id="Path_446" data-name="Path 446" class="cls-5" d="M434,696.627c0,6.854-11.664,8.415-33.25,7.895-22.064-.531-54.5-3.238-95.443-4.682-15.486-.545-32.192-.913-50.013-.913-111.01,0-223.294,14.215-223.294-2.3,0-3.893,5-7.608,14.091-11.02,26.965-10.114,89.947-17.52,165.4-18.713q5.149-.085,10.372-.124,5.531-.048,11.136-.046c30,0,58.463.977,84.031,2.728.081.007.159.014.241.018q3.079.212,6.1.439,3.3.249,6.522.513c.442.035.885.071,1.323.11.319.025.637.053.952.081.58.046,1.161.1,1.734.149a.336.336,0,0,1,.06,0l3.142.276c.11.011.219.021.329.028,30.238,2.742,55.229,6.639,72.208,11.278C425.174,686.591,434,691.454,434,696.627Z" transform="translate(-32 -475.448)"/>
      <path id="Path_447" data-name="Path 447" class="cls-6" d="M102.887,584.384c0,22.654,14.212,40.985,31.775,40.985" transform="translate(-77.802 -422.246)"/>
      <path id="Path_448" data-name="Path 448" class="cls-7" d="M192.678,624.529c0-22.908,15.859-41.445,35.458-41.445" transform="translate(-135.818 -421.406)"/>
      <path id="Path_449" data-name="Path 449" class="cls-7" d="M135.42,590.188c0,21.518,9.063,38.931,20.262,38.931" transform="translate(-98.822 -425.996)"/>
      <path id="Path_450" data-name="Path 450" class="cls-6" d="M192.678,603.509c0-29.272,18.331-52.958,40.985-52.958" transform="translate(-135.818 -400.385)"/>
      <path id="Path_451" data-name="Path 451" class="cls-8" d="M173.788,696.572s4.506-.139,5.864-1.106,6.932-2.122,7.269-.571,6.772,7.714,1.684,7.755-11.821-.792-13.176-1.618S173.788,696.572,173.788,696.572Z" transform="translate(-123.613 -493.16)"/>
      <path id="Path_452" data-name="Path 452" class="cls-9" d="M188.7,706.546c-5.087.041-11.821-.792-13.176-1.618-1.032-.629-1.444-2.885-1.581-3.926l-.15.006s.285,3.634,1.641,4.46,8.089,1.659,13.176,1.618c1.469-.012,1.976-.534,1.948-1.308C190.349,706.245,189.789,706.537,188.7,706.546Z" transform="translate(-123.613 -497.596)"/>
      <path id="Path_453" data-name="Path 453" class="cls-6" d="M794.887,575.384c0,22.654,14.212,40.985,31.775,40.985Z" transform="translate(-524.922 -416.431)"/>
      <path id="Path_454" data-name="Path 454" class="cls-7" d="M884.678,615.529c0-22.908,15.859-41.445,35.458-41.445Z" transform="translate(-582.938 -415.591)"/>
      <path id="Path_455" data-name="Path 455" class="cls-7" d="M827.42,581.188c0,21.518,9.063,38.931,20.262,38.931Z" transform="translate(-545.942 -420.181)"/>
      <path id="Path_456" data-name="Path 456" class="cls-6" d="M884.678,594.509c0-29.272,18.331-52.958,40.984-52.958Z" transform="translate(-582.938 -394.57)"/>
      <path id="Path_457" data-name="Path 457" class="cls-8" d="M865.788,687.572s4.506-.139,5.864-1.106,6.932-2.122,7.269-.571,6.772,7.714,1.684,7.755-11.821-.793-13.176-1.618S865.788,687.572,865.788,687.572Z" transform="translate(-570.733 -487.345)"/>
      <path id="Path_458" data-name="Path 458" class="cls-9" d="M880.7,697.545c-5.087.041-11.821-.792-13.176-1.618-1.032-.629-1.444-2.885-1.581-3.926l-.15.006s.285,3.634,1.641,4.46,8.089,1.659,13.176,1.618c1.468-.012,1.976-.534,1.948-1.308C882.349,697.245,881.789,697.537,880.7,697.545Z" transform="translate(-570.733 -491.78)"/>
      <rect id="Rectangle_55" data-name="Rectangle 55" class="cls-6" width="6.37" height="11.355" transform="translate(170.213 155.874)"/>
      <circle id="Ellipse_54" data-name="Ellipse 54" class="cls-3" cx="1.246" cy="1.246" r="1.246" transform="translate(172.152 157.674)"/>
      <path id="Path_459" data-name="Path 459" class="cls-10" d="M523.2,538.553s-1.939,11.244,1.551,11.632.388-12.02.388-12.02Z" transform="translate(-349.031 -392.383)"/>
      <path id="Path_460" data-name="Path 460" class="cls-11" d="M525.065,430.788s-4.071,38.58-2.908,39.161,4.265,1.357,4.847.775,2.908-24.427,2.908-24.427l-1.745-12.408Z" transform="translate(-348.568 -323.003)"/>
      <path id="Path_461" data-name="Path 461" class="cls-4" d="M525.065,430.788s-4.071,38.58-2.908,39.161,4.265,1.357,4.847.775,2.908-24.427,2.908-24.427l-1.745-12.408Z" transform="translate(-348.568 -323.003)"/>
      <rect id="Rectangle_56" data-name="Rectangle 56" class="cls-12" width="12.214" height="13.183" transform="translate(183.96 90.434)"/>
      <path id="Path_462" data-name="Path 462" class="cls-10" d="M552.7,398.465s-.388,8.53-3.1,9.112,2.52,10.469,2.52,10.469l8.142-.775,1.939-11.632s-4.459-.775-2.908-6.785Z" transform="translate(-365.932 -302.119)"/>
      <path id="Path_463" data-name="Path 463" class="cls-4" d="M552.7,398.465s-.388,8.53-3.1,9.112,2.52,10.469,2.52,10.469l8.142-.775,1.939-11.632s-4.459-.775-2.908-6.785Z" transform="translate(-365.932 -302.119)"/>
      <path id="Path_464" data-name="Path 464" class="cls-10" d="M528.888,546.413l.581,3.3,3.49-.775-.776-3.3Z" transform="translate(-341.729 -352.551)"/>
      <path id="Path_465" data-name="Path 465" class="cls-10" d="M557.991,533.585l-1.163,3.49,3.683,1.938.194-2.908Z" transform="translate(-359.781 -344.764)"/>
      <path id="Path_466" data-name="Path 466" class="cls-12" d="M542.415,511.161s-4.653,13.571-3.683,19.968,4.847,36.835,4.847,36.835,4.459,2.908,7.173-.388L548.813,541.6s.388-15.7,1.939-14.152,7.561,19.774,7.561,19.774L557.149,563.7s.582,5.041,4.071,2.908l4.847-18.224s-1.551-24.427-2.326-25.4-5.816-12.214-5.816-12.214Z" transform="translate(-359.327 -374.684)"/>
      <circle id="Ellipse_55" data-name="Ellipse 55" class="cls-10" cx="5.622" cy="5.622" r="5.622" transform="translate(185.124 88.882)"/>
      <path id="Path_467" data-name="Path 467" class="cls-7" d="M548.136,429.954s2.133,3.1,4.847.969,4.265-2.326,4.265-2.326l3.3,1.939-.776,7.561,1.163,20.938S546.779,460.2,546,458.647s.969-8.142.969-8.142l-2.52-14.152v-6.4Z" transform="translate(-363.11 -321.588)"/>
      <path id="Path_468" data-name="Path 468" class="cls-11" d="M541.976,428.475s-3.49-10.663-4.653-10.857-4.459,2.133-4.459,2.133-4.847,1.551-4.847,2.52.775.969.775.969l2.714,5.234s1.163,4.653.776,7.755a31.186,31.186,0,0,0-.194,5.622s-4.265,25.59-2.133,26.366,2.133,1.551,2.133,1.551,3.1,1.745,3.683.969,6.2-34.121,6.2-34.121S544.884,431,541.976,428.475Z" transform="translate(-352.49 -314.487)"/>
      <path id="Path_469" data-name="Path 469" class="cls-11" d="M567.472,427.65s1.745-4.071.775-6.785a2.44,2.44,0,0,0,1.357-.775c.388-.582,0-3.49.969-3.683s8.142,0,8.53.388a22.866,22.866,0,0,1,1.551,3.1h-.582l-4.265,6.979s2.133,13.183,1.745,15.316,5.622,11.05,6.4,11.632,4.265,9.887,2.714,10.857-15.122,7.173-15.7,4.071-4.653-21.713-4.653-21.713-.194-10.275.388-12.8A47.551,47.551,0,0,0,567.472,427.65Z" transform="translate(-377.211 -313.661)"/>
      <path id="Path_470" data-name="Path 470" class="cls-10" d="M592.1,535.266s-4.071,13.377,0,12.8,3.1-13.183,3.1-13.183Z" transform="translate(-392.725 -390.259)"/>
      <path id="Path_471" data-name="Path 471" class="cls-12" d="M556.547,679.934s3.214.918,2.985,2.984a3.438,3.438,0,0,1-2.066,2.755,2.075,2.075,0,0,0-.918,2.066c.23,1.378-1.837,3.444-5.28,2.525s-2.755-1.837-2.755-1.837a3.987,3.987,0,0,1,1.607-2.525c1.378-.918,2.985-4.133,2.985-4.362s.459-1.837.459-1.837S555.4,678.557,556.547,679.934Z" transform="translate(-365.695 -483.546)"/>
      <path id="Path_472" data-name="Path 472" class="cls-12" d="M585.31,668.553s-3.49,1.551-2.714,3.49,3.3,4.653,3.683,7.561,3.684,5.428,6.01,3.877-.388-4.653-.388-4.653-2.908-5.428-3.1-6.591.388-2.327-.776-2.714S585.31,668.553,585.31,668.553Z" transform="translate(-387.682 -476.63)"/>
      <path id="Path_473" data-name="Path 473" class="cls-4" d="M596.66,429.765s-.485-2.229.1-.872,4.847,17.836.969,27.723c0,0-.388,12.214-.776,12.214s-5.041-.194-4.847-1.551.582-23.264.582-24.621.679-10.178.679-10.178Z" transform="translate(-393.894 -321.496)"/>
      <path id="Path_474" data-name="Path 474" class="cls-11" d="M595.8,422.571a11.721,11.721,0,0,1,1.551,2.52c.582,1.357,4.847,17.836.969,27.723,0,0-.388,12.214-.776,12.214s-5.041-.194-4.847-1.551.582-23.264.582-24.621-1.163-10.469-1.163-10.469Z" transform="translate(-393.905 -317.694)"/>
      <path id="Path_475" data-name="Path 475" class="cls-12" d="M543.638,364.531c-2.034.636-3.553,2.3-4.968,3.891a8.242,8.242,0,0,0-1.387,1.9,7.644,7.644,0,0,0-.56,2.791q-.142,2.225-.091,4.456a12.8,12.8,0,0,1-.318,4.243,29.085,29.085,0,0,1-1.911,3.658,7.671,7.671,0,0,0-.3,6.381c.491,1.106,1.285,2.048,1.879,3.1a9.608,9.608,0,0,1,1.1,6.18l2.792-3.616c1.788-2.316,3.633-4.757,4.136-7.64.73-4.181-1.5-8.276-1.941-12.5a5.116,5.116,0,0,1,.585-3.426c.984-1.444,3.123-1.954,3.714-3.6.086.688,4.209,2.881,4.706,2.454a5.135,5.135,0,0,1-.779,4.959c-.4.5-.89.913-1.279,1.416a6.717,6.717,0,0,0-1.1,4.7c.142,1.642.615,3.236.865,4.866a36.145,36.145,0,0,1,.3,4.892,4.354,4.354,0,0,1-.807,3.2,9.7,9.7,0,0,0,3.49-2.139,17.391,17.391,0,0,1,1.74-1.65c1.249-.9,2.941-1.168,3.96-2.323a4.768,4.768,0,0,0,.841-3.9c-.214-1.358-.734-2.65-1-4a10.744,10.744,0,0,1,.27-5.161,15.993,15.993,0,0,0,1.035-3.654c.148-2.587-1.847-4.75-3.764-6.493C551.988,364.917,547.539,363.311,543.638,364.531Z" transform="translate(-356.061 -279.925)"/>
      <path id="Path_476" data-name="Path 476" class="cls-3" d="M751.372,179.54a42.053,42.053,0,0,1-8.229,1.573c-9.5,1.14-22.514,1.544-22.514,1.544s-66.891,5.548-117.028-15.086c0,0-7.293-3.824-.519-8.968a21.866,21.866,0,0,1,3.308-2.02s.028-.029.084-.081a18.4,18.4,0,0,1,14.806-4.684l131.673,21.3S757.766,177.179,751.372,179.54Z" transform="translate(-399.13 -142.607)"/>
      <path id="Path_477" data-name="Path 477" class="cls-3" d="M953.25,167.583l27.567-19.559,12.15,2.1-11.9,20.685S953.567,171.029,953.25,167.583Z" transform="translate(-627.244 -140.302)"/>
      <path id="Path_478" data-name="Path 478" class="cls-3" d="M725.129,15.4,780.038,0l8.851,1.849-24.8,11.158-7.753,8.673Z" transform="translate(-468.525)"/>
      <path id="Path_479" data-name="Path 479" class="cls-3" d="M743.146,193.913c-9.5,1.14-22.514,1.544-22.514,1.544s-66.891,5.548-117.028-15.086c0,0-7.293-3.824-.519-8.968l.023.094s10.818,7.312,62.507,13.417Z" transform="translate(-399.132 -155.407)"/>
      <path id="Path_480" data-name="Path 480" class="cls-3" d="M978.982,228.393l24.55,10.023,6.167-.685L995.014,226.7S977.254,222.908,978.982,228.393Z" transform="translate(-643.794 -190.311)"/>
      <path id="Path_481" data-name="Path 481" class="cls-3" d="M623.458,165.233c-1.172.02-3.856-1.945-5.524-3.266a17.533,17.533,0,0,1,2.485-1.916c1.345,1.032,3.739,2.7,5.069,2.644C627.41,162.609,625.222,165.2,623.458,165.233Z" transform="translate(-410.588 -148.073)"/>
      <path id="Path_482" data-name="Path 482" class="cls-3" d="M816.7,259.419l-15.761.824-44.312-29.881-8.226-5.547-4-2.7c7.5-6.337,38.082,2.4,38.082,2.4a2.7,2.7,0,0,1,.745,2.222,13.68,13.68,0,0,1-1.156,4.411c-.074.172-.119.268-.119.268Z" transform="translate(-492.3 -186.687)"/>
      <path id="Path_483" data-name="Path 483" class="cls-6" d="M751.372,179.54a42.053,42.053,0,0,1-8.229,1.573c-9.5,1.14-22.514,1.544-22.514,1.544s-66.891,5.548-117.028-15.086c0,0-7.293-3.824-.519-8.968a21.866,21.866,0,0,1,3.308-2.02s.028-.029.084-.081a18.4,18.4,0,0,1,14.806-4.684l131.673,21.3S757.766,177.179,751.372,179.54Z" transform="translate(-399.13 -142.607)"/>
      <path id="Path_484" data-name="Path 484" class="cls-6" d="M953.25,167.583l27.567-19.559,12.15,2.1-11.9,20.685S953.567,171.029,953.25,167.583Z" transform="translate(-627.244 -140.302)"/>
      <path id="Path_485" data-name="Path 485" class="cls-6" d="M725.129,15.4,780.038,0l8.851,1.849-24.8,11.158-7.753,8.673Z" transform="translate(-468.525)"/>
      <path id="Path_486" data-name="Path 486" class="cls-5" d="M743.146,193.913c-9.5,1.14-22.514,1.544-22.514,1.544s-66.891,5.548-117.028-15.086c0,0-7.293-3.824-.519-8.968l.023.094s10.818,7.312,62.507,13.417Z" transform="translate(-399.132 -155.407)"/>
      <path id="Path_487" data-name="Path 487" class="cls-6" d="M978.982,228.393l24.55,10.023,6.167-.685L995.014,226.7S977.254,222.908,978.982,228.393Z" transform="translate(-643.794 -190.311)"/>
      <path id="Path_488" data-name="Path 488" class="cls-7" d="M623.458,165.233c-1.172.02-3.856-1.945-5.524-3.266a17.533,17.533,0,0,1,2.485-1.916c1.345,1.032,3.739,2.7,5.069,2.644C627.41,162.609,625.222,165.2,623.458,165.233Z" transform="translate(-410.588 -148.073)"/>
      <path id="Path_489" data-name="Path 489" class="cls-6" d="M816.7,259.419l-15.761.824-44.312-29.881-8.226-5.547-4-2.7c7.5-6.337,38.082,2.4,38.082,2.4a2.7,2.7,0,0,1,.745,2.222,13.68,13.68,0,0,1-1.156,4.411c-.074.172-.119.268-.119.268Z" transform="translate(-492.3 -186.687)"/>
    </g>
  </g>
</svg>
