<svg xmlns="http://www.w3.org/2000/svg" xmlns:xlink="http://www.w3.org/1999/xlink" width="464" height="396" viewBox="0 0 464 396">
  <defs>
    <style>
      .cls-1 {
        fill: url(#linear-gradient);
      }

      .cls-2 {
        fill: #f2f2f2;
      }

      .cls-3 {
        fill: #fff;
      }

      .cls-4 {
        fill: #ccc;
      }

      .cls-5 {
        fill: #0279ae;
      }

      .cls-6 {
        fill: #a0616a;
      }

      .cls-7 {
        fill: #2f2e41;
      }

      .cls-8 {
        fill: #3f3d56;
      }
    </style>
    <linearGradient id="linear-gradient" y1="0.031" x2="1" y2="1" gradientUnits="objectBoundingBox">
      <stop offset="0" stop-color="#9ae0ff"/>
      <stop offset="1" stop-color="#717171"/>
    </linearGradient>
  </defs>
  <g id="Group_362" data-name="Group 362" transform="translate(-379 -4165)">
    <rect id="Rectangle_53" data-name="Rectangle 53" class="cls-1" width="464" height="396" rx="20" transform="translate(379 4165)"/>
    <g id="Group_359" data-name="Group 359" transform="translate(405 4196)">
      <path id="Path_412" data-name="Path 412" class="cls-2" d="M644.554,367.536c-.451.867-.922,1.72-1.408,2.567-18.626,32.449-61.954,52.6-135.025,41.936-41.489-6.344-59.159,16.926-76.268,40.761-.293.411-.585.823-.882,1.234-17.917,24.995-35.656,50.059-80.01,41.727-47.021-7.434-76.04-45.613-80.53-86.374-.055-.5-.1-1-.149-1.492-2.523-26.427,5.274-53.791,25.163-74.449,12.014-12.475,29.084-19.1,46.7-18.894a85.847,85.847,0,0,0,15.84-1.175c1.155-.2,2.275-.426,3.365-.679,22.447-5.13,32.791-20.38,39.135-38.991.149-.441.3-.882.441-1.328C415.5,228,408.762,165.7,487.954,174.864c70.866,5.224,122.873,44.518,148.382,89.853.253.456.506.912.753,1.368a138.279,138.279,0,0,1,14.829,40.3c.159.793.3,1.586.436,2.379C655.964,329.819,653.6,350.283,644.554,367.536Z" transform="translate(-251.543 -163.721)"/>
      <path id="Path_413" data-name="Path 413" class="cls-3" d="M736.753,335.311a108.521,108.521,0,0,1-17.084,16.311c-24.43,18.735-55.372,28.9-85.9,31.027a170.664,170.664,0,0,1-46.847-3.182c-15.662-3.281-30.6-9.06-45.068-15.811-14.071-6.567-27.726-13.972-41.7-20.722.149-.441.3-.882.441-1.328,15.241,7.335,30.169,15.419,45.588,22.408,14.527,6.587,29.564,11.96,45.291,14.834a170.066,170.066,0,0,0,47.571,1.864c30.442-3.063,61.409-14.294,84.813-34.387A101.272,101.272,0,0,0,736,333.943C736.253,334.4,736.506,334.854,736.753,335.311Z" transform="translate(-351.207 -232.947)"/>
      <path id="Path_414" data-name="Path 414" class="cls-4" d="M679.6,156.736q-.053,0-.106,0a71.527,71.527,0,0,0,0,142.767,1.632,1.632,0,0,0,1.23-.442,1.615,1.615,0,0,0,.514-1.188V158.37a1.637,1.637,0,0,0-1.638-1.634Z" transform="translate(-399.819 -156.27)"/>
      <path id="Path_415" data-name="Path 415" class="cls-4" d="M793.367,275.437a2.106,2.106,0,0,1-1.485-.615l-48.571-48.571a2.083,2.083,0,0,1-.614-1.483V158.014a2.076,2.076,0,0,1,.661-1.527,2.108,2.108,0,0,1,1.578-.568,72,72,0,0,1,50.02,118.792,2.108,2.108,0,0,1-1.511.725Z" transform="translate(-456.155 -155.914)"/>
      <path id="Path_416" data-name="Path 416" class="cls-5" d="M744.8,360.089a2.114,2.114,0,0,1-1.444-.571,2.078,2.078,0,0,1-.662-1.529v-60.23a2.1,2.1,0,0,1,3.58-1.483L788.66,338.66a2.1,2.1,0,0,1-.079,3.045,72.146,72.146,0,0,1-43.649,18.38C744.889,360.088,744.845,360.089,744.8,360.089Z" transform="translate(-456.155 -216.383)"/>
      <path id="Path_417" data-name="Path 417" class="cls-3" d="M719.6,409.77A104.4,104.4,0,0,1,692.209,440.9c-24.43,18.735-55.372,28.9-85.9,31.027a170.666,170.666,0,0,1-46.847-3.182c-15.662-3.281-30.6-9.06-45.068-15.811-14.73-6.874-29.009-14.671-43.675-21.674-14.651-7-29.708-12.966-45.484-16.871,1.155-.2,2.275-.426,3.365-.679q1.546.4,3.083.833c30.848,8.624,58.074,25.619,87.038,38.749,14.527,6.587,29.565,11.96,45.291,14.834a170.067,170.067,0,0,0,47.571,1.864c30.442-3.063,61.409-14.294,84.813-34.387a98.855,98.855,0,0,0,22.769-28.207Q719.4,408.581,719.6,409.77Z" transform="translate(-318.791 -264.728)"/>
      <path id="Path_418" data-name="Path 418" class="cls-3" d="M346.449,592.366c30.392,8.5,57.266,25.119,85.755,38.159-.293.411-.585.823-.882,1.234-.724-.332-1.442-.664-2.161-1-14.73-6.874-29.009-14.671-43.675-21.674-14.963-7.147-30.348-13.219-46.49-17.119a207.731,207.731,0,0,0-68.214-4.852c-.055-.5-.1-1-.149-1.492a209.3,209.3,0,0,1,75.817,6.746Z" transform="translate(-251.893 -341.447)"/>
      <path id="Path_419" data-name="Path 419" class="cls-4" d="M454.311,681.65H238.169a.567.567,0,1,1,0-1.135H454.311a.567.567,0,1,1,0,1.135Z" transform="translate(-237.602 -382.908)"/>
      <circle id="Ellipse_46" data-name="Ellipse 46" class="cls-6" cx="13.934" cy="13.934" r="13.934" transform="translate(74.066 194.343)"/>
      <path id="Path_420" data-name="Path 420" class="cls-6" d="M226.58,540.442l.325,6.948-26.642,4.561-.48-10.253Z" transform="translate(-86.445 -233.848)"/>
      <path id="Path_421" data-name="Path 421" class="cls-7" d="M489.478,692.677l.74,15.794-.283.013a10.774,10.774,0,0,1-6.25-1.512,5.394,5.394,0,0,1-2.757-4.227h0l-.452-9.646Z" transform="translate(-342.693 -388.17)"/>
      <path id="Path_422" data-name="Path 422" class="cls-6" d="M245.7,540.132h6.955l3.309-26.827H245.7Z" transform="translate(-106.315 -222.106)"/>
      <path id="Path_423" data-name="Path 423" class="cls-7" d="M480.18,712.5h13.7a8.729,8.729,0,0,1,8.729,8.729v.283H480.18Z" transform="translate(-342.565 -396.749)"/>
      <path id="Path_424" data-name="Path 424" class="cls-6" d="M360.443,655.883a6.094,6.094,0,0,0,1.419-9.237l5.551-55.229-13.221.924-1.3,54a6.127,6.127,0,0,0,7.55,9.544Z" transform="translate(-286.715 -344.355)"/>
      <path id="Path_425" data-name="Path 425" class="cls-5" d="M367.455,589.206l-13.7-1.669a2.733,2.733,0,0,1-2.3-3.437l3.648-13.267a7.589,7.589,0,1,1,15.061,1.88l.357,13.71a2.733,2.733,0,0,1-3.062,2.783Z" transform="translate(-286.821 -332.571)"/>
      <path id="Path_426" data-name="Path 426" class="cls-7" d="M369.64,665.812a9.452,9.452,0,0,1-7.168-14.751l8.949-9.29,32.62-29.216,17.439-14.471a7.809,7.809,0,0,1,12.567,4.136l9.111,36.857a2.547,2.547,0,0,1-1.614,3.015l-9.933,3.575a2.553,2.553,0,0,1-3.331-1.744L424.5,629.754l-21.023,20.1,6.559,2.414a2.564,2.564,0,0,1,1.575,3.089l-2.12,7.51a2.543,2.543,0,0,1-2.383,1.858Z" transform="translate(-290.923 -346.461)"/>
      <path id="Path_427" data-name="Path 427" class="cls-5" d="M368.873,625.473l-.863-31.516-5.443-13.823A20.8,20.8,0,0,1,377.7,552.14q.672-.14,1.34-.272h0a20.8,20.8,0,0,1,24.747,18.365l2.558,23.726-.01.045c-4.078,18.141-15.88,28.125-37.141,31.419Z" transform="translate(-291.047 -327.07)"/>
      <path id="Path_428" data-name="Path 428" class="cls-6" d="M393.657,616.444a5.985,5.985,0,0,1,.938-.07l15.748-23.314-2.982-6.15,8.693-5.714,6.338,10.374a4.538,4.538,0,0,1-.518,5.422l-21.553,23.664a5.955,5.955,0,1,1-6.663-4.212Z" transform="translate(-302.959 -339.933)"/>
      <path id="Path_429" data-name="Path 429" class="cls-5" d="M418.156,583.039a2.55,2.55,0,0,1-1.623-1.373l-5.446-11.6a7.09,7.09,0,1,1,11.788-7.88l8.605,9.549a2.553,2.553,0,0,1-.484,3.835l-10.74,7.134a2.55,2.55,0,0,1-2.1.332Z" transform="translate(-312.15 -330.345)"/>
      <path id="Path_430" data-name="Path 430" class="cls-4" d="M681.5,538.288H635.508a2.5,2.5,0,1,1,0-5H681.5a2.5,2.5,0,1,1,0,5Z" transform="translate(-408.693 -319.203)"/>
      <path id="Path_431" data-name="Path 431" class="cls-8" d="M609.178,538.5a5.249,5.249,0,1,1,5.249-5.249A5.249,5.249,0,0,1,609.178,538.5Z" transform="translate(-396.111 -316.916)"/>
      <path id="Path_432" data-name="Path 432" class="cls-4" d="M681.5,564.724H635.508a2.5,2.5,0,1,1,0-5H681.5a2.5,2.5,0,1,1,0,5Z" transform="translate(-408.693 -330.642)"/>
      <path id="Path_433" data-name="Path 433" class="cls-8" d="M609.178,564.936a5.249,5.249,0,1,1,5.249-5.249A5.249,5.249,0,0,1,609.178,564.936Z" transform="translate(-396.111 -328.355)"/>
      <path id="Path_434" data-name="Path 434" class="cls-4" d="M681.5,591.16H635.508a2.5,2.5,0,1,1,0-5H681.5a2.5,2.5,0,1,1,0,5Z" transform="translate(-408.693 -342.081)"/>
      <path id="Path_435" data-name="Path 435" class="cls-8" d="M609.178,591.372a5.249,5.249,0,1,1,5.249-5.249A5.249,5.249,0,0,1,609.178,591.372Z" transform="translate(-396.111 -339.793)"/>
      <path id="Path_436" data-name="Path 436" class="cls-8" d="M741.4,473.676h19a.5.5,0,0,0,.5-.5V355.739a.5.5,0,0,0-1,0V472.677H741.4a.5.5,0,1,0,0,1Z" transform="translate(-455.376 -242.161)"/>
      <path id="Path_437" data-name="Path 437" class="cls-4" d="M879.954,211.007h0a6.443,6.443,0,1,1,5.905-6.94A6.443,6.443,0,0,1,879.954,211.007Zm-.08-.988h0a5.452,5.452,0,1,0-5.872-5,5.452,5.452,0,0,0,5.872,5Z" transform="translate(-512.534 -174.185)"/>
      <circle id="Ellipse_47" data-name="Ellipse 47" class="cls-4" cx="3.965" cy="3.965" r="3.965" transform="translate(385.641 12.358)"/>
      <circle id="Ellipse_48" data-name="Ellipse 48" class="cls-4" cx="2.083" cy="2.083" r="2.083" transform="translate(407.013 1.783)"/>
      <path id="Path_438" data-name="Path 438" class="cls-4" d="M822.881,436.75a6.443,6.443,0,1,1-1.824-8.928h0A6.45,6.45,0,0,1,822.881,436.75Zm-9.924-6.558a5.452,5.452,0,1,0,7.554-1.543h0a5.458,5.458,0,0,0-7.554,1.543Z" transform="translate(-485.736 -273.106)"/>
      <circle id="Ellipse_49" data-name="Ellipse 49" class="cls-4" cx="3.965" cy="3.965" r="3.965" transform="translate(340.899 179.41)"/>
      <circle id="Ellipse_50" data-name="Ellipse 50" class="cls-4" cx="2.083" cy="2.083" r="2.083" transform="translate(353.841 201.608)"/>
      <path id="Path_439" data-name="Path 439" class="cls-4" d="M549.364,246.517a6.443,6.443,0,1,1,8.637,2.9h0a6.45,6.45,0,0,1-8.637-2.9Zm10.652-5.294a5.452,5.452,0,1,0-2.456,7.309h0a5.458,5.458,0,0,0,2.456-7.308Z" transform="translate(-372.209 -191.089)"/>
      <circle id="Ellipse_51" data-name="Ellipse 51" class="cls-4" cx="3.965" cy="3.965" r="3.965" transform="translate(152.25 48.239)"/>
      <circle id="Ellipse_52" data-name="Ellipse 52" class="cls-4" cx="2.083" cy="2.083" r="2.083" transform="translate(131.01 49.493)"/>
      <path id="Path_440" data-name="Path 440" class="cls-7" d="M392.486,509.474l-.581-1.48a12.613,12.613,0,0,0-9.534-7.811,10.9,10.9,0,0,0-10.573,4.9,23.882,23.882,0,0,0-2.231,5.221c-.183.543-.367.935-.721,1.054-.4.143-.795-.1-1.452-.509a.909.909,0,0,0-1.379.9l.689,4.918-.577-.513a10.9,10.9,0,0,1-1.812-13.609l-6.167,1.267.278-.53a21.062,21.062,0,0,1,12.279-10.37l-5.907-1.3.6-.368a17.089,17.089,0,0,1,17.779.229,20.163,20.163,0,0,1,9.279,16.415Z" transform="translate(-289.762 -299.978)"/>
    </g>
  </g>
</svg>
